<svg width="379" height="71" viewBox="0 0 379 71" fill="none" xmlns="http://www.w3.org/2000/svg">
<path d="M24.6236 25.9517H29.9653C26.1628 12.2441 14.418 1.81638 6.10352e-05 2.44337e-05V5.17905C11.5739 6.8865 21.0534 15.0884 24.6236 25.9517Z" fill="#FDDD04"/>
<path d="M31.0044 34.8615H0V40.0017H25.8246C23.8572 53.3097 13.3084 63.8552 7.6966e-05 65.8184V71C16.1446 68.9663 28.9674 56.1428 31.0036 40.0017H31.0044V34.8615Z" fill="#66C875"/>
<path fill-rule="evenodd" clip-rule="evenodd" d="M53.0072 45.4645C51.939 44.9056 51.1094 44.1264 50.5151 43.1267C49.9216 42.1192 49.6241 40.9542 49.6241 39.6476V31.3197C49.6241 30.0131 49.9216 28.8481 50.5151 27.8484C51.1094 26.8409 51.939 26.0616 53.0072 25.5106C54.0737 24.9517 55.3103 24.6763 56.7201 24.6763C58.1086 24.6763 59.3404 24.9518 60.4188 25.487C61.4948 26.038 62.3245 26.7936 62.9085 27.7697C63.4926 28.7457 63.7846 29.8477 63.7846 31.0757V31.4692C63.7846 31.6739 63.6831 31.7683 63.4831 31.7683H61.9419C61.742 31.7683 61.6405 31.6739 61.6405 31.4692V31.1072C61.6405 29.7612 61.1934 28.6592 60.2968 27.817C59.4018 26.9747 58.2093 26.5496 56.7201 26.5496C55.23 26.5496 54.0336 26.9826 53.1276 27.8484C52.2208 28.7143 51.769 29.8477 51.769 31.2567V39.7105C51.769 41.1195 52.231 42.253 53.1575 43.1267C54.084 43.9847 55.3001 44.4255 56.8106 44.4255C58.2794 44.4255 59.4522 44.0162 60.3267 43.2133C61.2028 42.4104 61.6405 41.332 61.6405 39.986V37.2389C61.6405 37.1523 61.6003 37.113 61.52 37.113H57.0829C56.8806 37.113 56.7807 37.0186 56.7807 36.8139V35.5466C56.7807 35.3419 56.8806 35.2475 57.0829 35.2475H63.4831C63.6831 35.2475 63.7846 35.3419 63.7846 35.5466V39.435C63.7846 41.5918 63.1455 43.2762 61.8671 44.4805C60.5888 45.6849 58.8729 46.291 56.7201 46.291C55.3103 46.291 54.0737 46.0155 53.0072 45.4645ZM71.2412 26.9097V34.5513C71.2412 34.63 71.2814 34.6694 71.3609 34.6694H76.9768C78.1439 34.6694 79.0898 34.3073 79.8139 33.5833C80.5403 32.8593 80.9023 31.9149 80.9023 30.7501C80.9023 29.5854 80.5403 28.6332 79.8139 27.8934C79.0898 27.1615 78.1439 26.7916 76.9768 26.7916H71.3609C71.2814 26.7916 71.2412 26.831 71.2412 26.9097ZM81.0526 45.8446L76.6148 36.4873C76.5951 36.4243 76.555 36.3928 76.4944 36.3928H71.3609C71.2814 36.3928 71.2412 36.4322 71.2412 36.5109V45.7501C71.2412 45.9547 71.1397 46.057 70.939 46.057H69.3989C69.1982 46.057 69.0967 45.9547 69.0967 45.7501V25.2256C69.0967 25.0209 69.1982 24.9186 69.3989 24.9186H77.2192C78.9498 24.9186 80.3482 25.4616 81.4146 26.5319C82.481 27.6101 83.0153 29.0188 83.0153 30.7501C83.0153 32.151 82.6329 33.3551 81.8687 34.3388C81.1022 35.3226 80.0665 35.96 78.7577 36.2434C78.6775 36.2827 78.6578 36.3299 78.6979 36.3928L83.227 45.6872C83.2467 45.7344 83.2569 45.7816 83.2569 45.8446C83.2569 45.9862 83.1751 46.057 83.0153 46.057H81.4146C81.2344 46.057 81.1124 45.9862 81.0526 45.8446ZM90.1391 26.7916H101.249C101.451 26.7916 101.551 26.6893 101.551 26.4926V25.2256C101.551 25.0209 101.451 24.9186 101.249 24.9186H88.1771C87.9765 24.9186 87.8749 25.0209 87.8749 25.2256V45.7501C87.8749 45.9547 87.9765 46.057 88.1771 46.057H101.249C101.451 46.057 101.551 45.9547 101.551 45.7501V44.483C101.551 44.2784 101.451 44.184 101.249 44.184H90.1391C90.0588 44.184 90.0195 44.1368 90.0195 44.0581V36.4873C90.0195 36.4007 90.0588 36.3614 90.1391 36.3614H97.9279C98.1301 36.3614 98.2301 36.259 98.2301 36.0623V34.7953C98.2301 34.5907 98.1301 34.4883 97.9279 34.4883H90.1391C90.0588 34.4883 90.0195 34.449 90.0195 34.3703V26.9097C90.0195 26.831 90.0588 26.7916 90.1391 26.7916ZM119.816 26.7916H108.706C108.625 26.7916 108.585 26.831 108.585 26.9097V34.3703C108.585 34.449 108.625 34.4883 108.706 34.4883H116.494C116.696 34.4883 116.797 34.5907 116.797 34.7953V36.0623C116.797 36.259 116.696 36.3614 116.494 36.3614H108.706C108.625 36.3614 108.585 36.4007 108.585 36.4873V44.0581C108.585 44.1368 108.625 44.184 108.706 44.184H119.816C120.017 44.184 120.117 44.2784 120.117 44.483V45.7501C120.117 45.9547 120.017 46.057 119.816 46.057H106.743C106.543 46.057 106.441 45.9547 106.441 45.7501V25.2256C106.441 25.0209 106.543 24.9186 106.743 24.9186H119.816C120.017 24.9186 120.117 25.0209 120.117 25.2256V26.4926C120.117 26.6893 120.017 26.7916 119.816 26.7916ZM139.441 24.9186H137.901C137.699 24.9186 137.599 25.0209 137.599 25.2256L137.629 41.8545C137.629 41.9175 137.609 41.9489 137.568 41.9647C137.529 41.9726 137.498 41.9489 137.479 41.886L127.183 25.1311C127.082 24.9894 126.961 24.9186 126.821 24.9186H125.311C125.11 24.9186 125.009 25.0209 125.009 25.2256V45.7501C125.009 45.9547 125.11 46.057 125.311 46.057H126.851C127.051 46.057 127.153 45.9547 127.153 45.7501L127.123 29.1211C127.123 29.0582 127.143 29.0188 127.183 29.0109C127.223 29.0031 127.253 29.0267 127.273 29.0896L137.568 45.8446C137.669 45.9862 137.79 46.057 137.931 46.057H139.441C139.641 46.057 139.741 45.9547 139.741 45.7501V25.2256C139.741 25.0209 139.641 24.9186 139.441 24.9186Z" fill="#2E2A2B"/>
<path fill-rule="evenodd" clip-rule="evenodd" d="M154.783 43.123C155.377 44.1299 156.206 44.9062 157.274 45.4672C158.341 46.0206 159.577 46.2897 160.987 46.2897C163.141 46.2897 164.856 45.6902 166.134 44.4834C167.412 43.2767 168.052 41.5934 168.052 39.4413V35.5445C168.052 35.3446 167.95 35.2447 167.75 35.2447H161.35C161.148 35.2447 161.048 35.3446 161.048 35.5445V36.8127C161.048 37.0125 161.148 37.1124 161.35 37.1124H165.787C165.867 37.1124 165.908 37.1586 165.908 37.2354V39.9793C165.908 41.3321 165.47 42.4082 164.594 43.2152C163.719 44.0146 162.546 44.422 161.078 44.422C159.567 44.422 158.351 43.9915 157.424 43.123C156.498 42.2544 156.036 41.1246 156.036 39.7103V31.2556C156.036 29.849 156.488 28.7115 157.394 27.8506C158.301 26.9821 159.497 26.5517 160.987 26.5517C162.476 26.5517 163.669 26.9745 164.564 27.8199C165.46 28.6577 165.908 29.7568 165.908 31.1096V31.4708C165.908 31.6707 166.009 31.7706 166.21 31.7706H167.75C167.95 31.7706 168.052 31.6707 168.052 31.4708V31.0788C168.052 29.849 167.76 28.7499 167.176 27.7738C166.592 26.7976 165.762 26.0367 164.685 25.491C163.607 24.9529 162.376 24.6763 160.987 24.6763C159.577 24.6763 158.341 24.953 157.274 25.5064C156.206 26.0598 155.377 26.8361 154.783 27.8506C154.189 28.8498 153.891 30.0105 153.891 31.3171V39.6488C153.891 40.9555 154.189 42.1161 154.783 43.123ZM175.508 34.5554V26.9091C175.508 26.8323 175.548 26.7939 175.628 26.7939H181.244C182.411 26.7939 183.357 27.155 184.081 27.8928C184.807 28.6305 185.169 29.5833 185.169 30.7437C185.169 31.9118 184.807 32.857 184.081 33.587C183.357 34.3094 182.411 34.6706 181.244 34.6706H175.628C175.548 34.6706 175.508 34.6322 175.508 34.5554ZM180.882 36.4842L185.319 45.844C185.379 45.9824 185.501 46.0515 185.682 46.0515H187.282C187.442 46.0515 187.524 45.9824 187.524 45.844C187.524 45.7826 187.514 45.7365 187.494 45.6904L182.965 36.3919C182.925 36.3305 182.945 36.2844 183.025 36.2382C184.333 35.9616 185.369 35.3238 186.135 34.3401C186.9 33.3565 187.282 32.1577 187.282 30.7437C187.282 29.0147 186.748 27.6161 185.682 26.5326C184.615 25.4567 183.217 24.9188 181.486 24.9188H173.665C173.466 24.9188 173.363 25.0187 173.363 25.2262V45.7518C173.363 45.9516 173.466 46.0515 173.665 46.0515H175.206C175.407 46.0515 175.508 45.9516 175.508 45.7518V36.5149C175.508 36.4304 175.548 36.3919 175.628 36.3919H180.761C180.821 36.3919 180.861 36.4227 180.882 36.4842ZM202.347 43.0615C203.274 42.1392 203.736 40.9094 203.736 39.3798V31.6553C203.736 30.118 203.274 28.8882 202.347 27.9505C201.421 27.0128 200.193 26.5517 198.664 26.5517C197.153 26.5517 195.936 27.0128 195.01 27.9505C194.084 28.8882 193.622 30.118 193.622 31.6553V39.3798C193.622 40.9094 194.084 42.1392 195.01 43.0615C195.936 43.9915 197.153 44.4527 198.664 44.4527C200.193 44.4527 201.421 43.9915 202.347 43.0615ZM194.89 45.4134C193.803 44.8293 192.963 44.0146 192.369 42.9539C191.774 41.9009 191.478 40.6788 191.478 39.2876V31.686C191.478 30.2872 191.774 29.0651 192.369 28.0121C192.963 26.9591 193.803 26.1367 194.89 25.5525C195.977 24.9684 197.234 24.6763 198.664 24.6763C200.092 24.6763 201.356 24.9684 202.452 25.5525C203.549 26.1367 204.395 26.9591 204.989 28.0121C205.581 29.0651 205.878 30.2872 205.878 31.686V39.2876C205.878 40.6788 205.581 41.9009 204.989 42.9539C204.395 44.0146 203.549 44.8293 202.452 45.4134C201.356 45.9976 200.092 46.2897 198.664 46.2897C197.234 46.2897 195.977 45.9976 194.89 45.4134ZM209.019 25.2492L214.815 45.8134C214.875 45.9747 214.985 46.0515 215.147 46.0515H216.656C216.858 46.0515 216.968 45.967 216.988 45.7826L221.306 28.8764C221.326 28.8303 221.35 28.8149 221.38 28.8149C221.412 28.8149 221.437 28.8303 221.457 28.8764L225.864 45.7826C225.905 45.967 226.015 46.0515 226.197 46.0515H227.798C227.977 46.0515 228.087 45.9747 228.129 45.8134L233.835 25.2492C233.854 25.1493 233.838 25.0725 233.789 25.011C233.739 24.9495 233.663 24.9188 233.563 24.9188H232.023C231.843 24.9188 231.731 25.0033 231.691 25.1647L227.103 41.7097C227.081 41.7481 227.056 41.7712 227.026 41.7712C226.996 41.7712 226.971 41.7481 226.952 41.7097L222.514 25.1954C222.474 25.011 222.361 24.9188 222.182 24.9188H220.551C220.369 24.9188 220.259 25.011 220.219 25.1954L215.962 41.7097C215.942 41.7481 215.916 41.7712 215.886 41.7712C215.856 41.7712 215.831 41.7481 215.811 41.7097L211.222 25.1647C211.182 25.0033 211.072 24.9188 210.89 24.9188H209.289C209.089 24.9188 208.987 25.0033 208.987 25.1647L209.019 25.2492ZM250.861 25.2262V26.5172C250.861 26.7247 250.761 26.8246 250.56 26.8246H244.642C244.562 26.8246 244.521 26.863 244.521 26.9398V45.7518C244.521 45.9516 244.421 46.0515 244.22 46.0515H242.68C242.478 46.0515 242.378 45.9516 242.378 45.7518V26.9398C242.378 26.863 242.338 26.8246 242.258 26.8246H236.582C236.381 26.8246 236.28 26.7247 236.28 26.5172V25.2262C236.28 25.0187 236.381 24.9188 236.582 24.9188H250.56C250.761 24.9188 250.861 25.0187 250.861 25.2262ZM269.157 24.9188H267.616C267.416 24.9188 267.314 25.0187 267.314 25.2262V34.3709C267.314 34.4477 267.274 34.4938 267.194 34.4938H257.563C257.483 34.4938 257.443 34.4477 257.443 34.3709V25.2262C257.443 25.0187 257.341 24.9188 257.141 24.9188H255.601C255.4 24.9188 255.299 25.0187 255.299 25.2262V45.7518C255.299 45.9516 255.4 46.0515 255.601 46.0515H257.141C257.341 46.0515 257.443 45.9516 257.443 45.7518V36.4842C257.443 36.4073 257.483 36.3612 257.563 36.3612H267.194C267.274 36.3612 267.314 36.4073 267.314 36.4842V45.7518C267.314 45.9516 267.416 46.0515 267.616 46.0515H269.157C269.357 46.0515 269.459 45.9516 269.459 45.7518V25.2262C269.459 25.0187 269.357 24.9188 269.157 24.9188Z" fill="#2E2A2B"/>
<path fill-rule="evenodd" clip-rule="evenodd" d="M286.992 45.4913C285.924 44.9362 285.095 44.1561 284.5 43.136C283.907 42.1234 283.609 40.9458 283.609 39.6181V31.322C283.609 30.0094 283.907 28.8543 284.5 27.8491C285.095 26.8365 285.924 26.0639 286.992 25.5088C288.058 24.9538 289.295 24.6763 290.705 24.6763C292.114 24.6763 293.35 24.9463 294.418 25.4939C295.485 26.034 296.314 26.799 296.909 27.7891C297.502 28.7718 297.8 29.9119 297.8 31.1946C297.8 31.2996 297.77 31.3821 297.71 31.4421C297.648 31.5021 297.578 31.5321 297.498 31.5321L295.957 31.6221C295.757 31.6221 295.655 31.5321 295.655 31.3521V31.2621C295.655 29.8294 295.203 28.6892 294.297 27.8341C293.392 26.979 292.194 26.5515 290.705 26.5515C289.215 26.5515 288.019 26.979 287.112 27.8491C286.206 28.7117 285.754 29.8519 285.754 31.2621V39.7156C285.754 41.1183 286.206 42.2584 287.112 43.121C288.019 43.9911 289.215 44.4262 290.705 44.4262C292.194 44.4262 293.392 43.9986 294.297 43.136C295.203 42.2809 295.655 41.1408 295.655 39.7156V39.6481C295.655 39.468 295.757 39.3781 295.957 39.3781L297.498 39.4681C297.698 39.4681 297.8 39.5581 297.8 39.7456C297.8 41.0508 297.502 42.2059 296.909 43.196C296.314 44.1937 295.485 44.9662 294.418 45.5063C293.35 46.0539 292.114 46.3239 290.705 46.3239C289.295 46.3239 288.058 46.0464 286.992 45.4913ZM313.105 43.061C314.031 42.1384 314.493 40.9082 314.493 39.3781V31.6521C314.493 30.1219 314.031 28.8918 313.105 27.9542C312.178 27.0166 310.95 26.5515 309.422 26.5515C307.911 26.5515 306.694 27.0166 305.769 27.9542C304.842 28.8918 304.38 30.1219 304.38 31.6521V39.3781C304.38 40.9082 304.842 42.1384 305.769 43.061C306.694 43.9911 307.911 44.4562 309.422 44.4562C310.95 44.4562 312.178 43.9911 313.105 43.061ZM305.648 45.4163C304.56 44.8312 303.72 44.0136 303.127 42.956C302.532 41.8984 302.235 40.6757 302.235 39.288V31.6822C302.235 30.287 302.532 29.0718 303.127 28.0142C303.72 26.9566 304.56 26.1315 305.648 25.5539C306.735 24.9688 307.991 24.6763 309.422 24.6763C310.85 24.6763 312.114 24.9688 313.21 25.5539C314.306 26.1315 315.152 26.9566 315.747 28.0142C316.339 29.0718 316.636 30.287 316.636 31.6822V39.288C316.636 40.6757 316.339 41.8984 315.747 42.956C315.152 44.0136 314.306 44.8312 313.21 45.4163C312.114 46.0014 310.85 46.2939 309.422 46.2939C307.991 46.2939 306.735 46.0014 305.648 45.4163ZM337.619 24.9129H336.049C335.908 24.9129 335.788 24.9879 335.687 25.1229L330.072 33.7023C330.051 33.7248 330.021 33.7323 329.981 33.7323C329.941 33.7323 329.911 33.7248 329.891 33.7023L324.215 25.093C324.135 24.973 324.013 24.9129 323.852 24.9129H322.282C322.082 24.9129 321.98 25.0179 321.98 25.2204V45.7464C321.98 45.9489 322.082 46.0464 322.282 46.0464H323.823C324.023 46.0464 324.125 45.9489 324.125 45.7464V29.0527C324.125 28.9927 324.145 28.9552 324.185 28.9252C324.225 28.9102 324.255 28.9252 324.275 28.9927L329.196 36.4771C329.297 36.5971 329.418 36.6571 329.559 36.6571H330.343C330.485 36.6571 330.605 36.5896 330.707 36.4471L335.626 28.8951C335.647 28.8351 335.677 28.8202 335.716 28.8352C335.758 28.8576 335.779 28.8952 335.779 28.9552V45.7464C335.779 45.9489 335.878 46.0464 336.081 46.0464H337.619C337.822 46.0464 337.921 45.9489 337.921 45.7464V25.2204C337.921 25.0179 337.822 24.9129 337.619 24.9129ZM357.938 24.9129H359.508C359.71 24.9129 359.811 25.0179 359.811 25.2204V45.7464C359.811 45.9489 359.71 46.0464 359.508 46.0464H357.97C357.767 46.0464 357.667 45.9489 357.667 45.7464V28.9552C357.667 28.8952 357.647 28.8576 357.606 28.8352C357.566 28.8202 357.535 28.8351 357.516 28.8951L352.596 36.4471C352.494 36.5896 352.374 36.6571 352.232 36.6571H351.447C351.308 36.6571 351.186 36.5971 351.086 36.4771L346.164 28.9927C346.144 28.9252 346.114 28.9102 346.074 28.9252C346.033 28.9552 346.014 28.9927 346.014 29.0527V45.7464C346.014 45.9489 345.912 46.0464 345.712 46.0464H344.171C343.971 46.0464 343.869 45.9489 343.869 45.7464V25.2204C343.869 25.0179 343.971 24.9129 344.171 24.9129H345.742C345.902 24.9129 346.024 24.973 346.104 25.093L351.78 33.7023C351.8 33.7248 351.83 33.7323 351.87 33.7323C351.91 33.7323 351.94 33.7248 351.962 33.7023L357.576 25.1229C357.677 24.9879 357.798 24.9129 357.938 24.9129ZM364.49 40.6457C364.49 42.356 365.148 43.7286 366.467 44.7562C367.783 45.7839 369.581 46.2939 371.856 46.2939C374.069 46.2939 375.8 45.7913 377.048 44.7862C378.297 43.7811 378.92 42.4309 378.92 40.7357C378.92 39.6481 378.643 38.733 378.089 37.9754C377.535 37.2178 376.811 36.5802 375.916 36.0552C375.02 35.5301 373.837 34.9675 372.368 34.3675C370.919 33.8049 369.848 33.3474 369.154 32.9948C368.46 32.6423 367.926 32.2297 367.554 31.7572C367.181 31.2846 366.994 30.6845 366.994 29.9569C366.994 28.8543 367.377 28.0067 368.143 27.4216C368.907 26.8365 370.004 26.5515 371.432 26.5515C373.062 26.5515 374.336 26.9191 375.252 27.6692C376.166 28.4118 376.625 29.3643 376.625 30.5345V31.0745C376.625 31.2771 376.725 31.3821 376.928 31.3821H378.436C378.638 31.3821 378.738 31.2771 378.738 31.0745V30.4145C378.738 28.6818 378.094 27.2941 376.805 26.244C375.519 25.2014 373.756 24.6763 371.524 24.6763C369.471 24.6763 367.855 25.1413 366.678 26.079C365.501 27.0166 364.912 28.3292 364.912 30.0169C364.912 31.1046 365.169 32.0122 365.681 32.7247C366.195 33.4373 366.869 34.0224 367.704 34.4724C368.539 34.93 369.711 35.4551 371.222 36.0552C372.63 36.6402 373.722 37.1578 374.497 37.6003C375.272 38.0429 375.845 38.5155 376.218 39.018C376.591 39.5206 376.775 40.1206 376.775 40.8257C376.775 41.9134 376.373 42.7835 375.569 43.4436C374.763 44.0961 373.587 44.4262 372.036 44.4262C370.325 44.4262 368.987 44.0662 368.021 43.3461C367.054 42.6335 366.572 41.6958 366.572 40.5257V39.7156C366.572 39.5056 366.47 39.4081 366.27 39.4081H364.791C364.589 39.4081 364.49 39.5056 364.49 39.7156V40.6457Z" fill="#2E2A2B"/>
</svg>
